<svg width="16" height="16" viewBox="0 0 24 24" fill="none" xmlns="http://www.w3.org/2000/svg">
  <path d="M16.5 12C16.5 10.23 15.48 8.71 14 7.97V10.18L16.45 12.63C16.48 12.43 16.5 12.22 16.5 12Z" fill="currentColor"/>
  <path d="M19 12C19 12.94 18.8 13.83 18.46 14.64L19.97 16.15C20.62 14.91 21 13.5 21 12C21 7.72 18.01 4.14 14 3.23V5.29C16.89 6.15 19 8.83 19 12ZM14 3.23V2C14 1.45 13.55 1 13 1C12.45 1 12 1.45 12 2V3.18C12.33 3.06 12.66 2.97 13 2.9V5.29C12.66 5.38 12.33 5.5 12 5.63V7.97C11.67 8.1 11.35 8.26 11.05 8.43L12.56 9.94C12.75 9.78 12.95 9.64 13.16 9.52V7.97C14.48 8.71 15.5 10.23 15.5 12C15.5 12.22 15.48 12.43 15.45 12.63L16.96 14.14C17.16 13.83 17.33 13.5 17.46 13.15L19.97 15.66C20.62 14.91 21 13.5 21 12C21 7.72 18.01 4.14 14 3.23ZM4.27 3L3 4.27L7.73 9H3V15H7L12 20V13.27L16.25 17.53C15.58 18.04 14.83 18.46 14 18.7V20.77C15.38 20.45 16.63 19.82 17.68 18.96L19.73 21L21 19.73L12 10.73L4.27 3ZM12 4L9.91 6.09L12 8.18V4Z" fill="currentColor"/>
</svg>

